<svg viewBox="0 0 36 36" xmlns="http://www.w3.org/2000/svg" xmlns:xlink="http://www.w3.org/1999/xlink"><linearGradient id="a" gradientUnits="userSpaceOnUse" x1="18" x2="18" y1="34.84" y2="1.16"><stop offset=".3" stop-color="#7d979a"/><stop offset=".34" stop-color="#88a2a5"/><stop offset=".48" stop-color="#b4cfd2"/><stop offset=".55" stop-color="#c5e0e3"/><stop offset="1" stop-color="#8da5ab"/></linearGradient><path d="m18 1.16 15 9v15.7l-15 9-15-9v-15.72l15-9m0-1.14-.52.31-15 9-.48.28v16.82l.48.29 15 9 .52.3.52-.31 15-9 .48-.29v-16.81l-.48-.29-15-9z"/><path d="m18 1.16-15 8.98v15.72l15 8.98 15-8.98v-15.72z" fill="url(#a)"/><path d="m18 2.89 13.5 8.11v14l-13.5 8.11-13.5-8.11v-14zm0-1.73-15 9v15.7l15 9 15-9v-15.72l-15-9z" fill="#c5e0e3"/></svg>